# MagicaVoxel @ Ephtracy

# group
o 

# material
mtllib fence_part_2.mtl
usemtl palette

# normals
vn -1 0 0
vn 1 0 0
vn 0 0 1
vn 0 0 -1
vn 0 -1 0
vn 0 1 0

# texcoords
vt 0.533203 0.5
vt 0.537109 0.5
vt 0.541016 0.5

# verts
v -0.4 0 -1.6
v -0.4 0 -2
v -0.4 0.1 -1.6
v -0.4 0.1 -2
v -0.4 0.2 -1.8
v -0.4 0.2 -2
v -0.4 0.3 -1.6
v -0.4 0.3 -1.7
v -0.4 0.3 -1.8
v -0.4 0.3 -2
v -0.4 0.6 -1.6
v -0.4 0.6 -1.7
v -0.4 0.6 -1.8
v -0.4 0.6 -1.9
v -0.4 0.7 -1.8
v -0.4 0.7 -1.9
v -0.4 0.7 -2
v -0.4 0.8 -1.9
v -0.4 0.8 -2
v -0.4 0.9 -1.6
v -0.4 0.9 -1.7
v -0.4 0.9 -1.9
v -0.4 0.9 -2
v -0.4 1.1 -1.8
v -0.4 1.1 -1.9
v -0.4 1.3 -1.6
v -0.4 1.3 -1.7
v -0.4 1.3 -1.8
v -0.4 1.3 -1.9
v -0.4 1.3 -2
v -0.4 1.4 -1.9
v -0.4 1.4 -2
v -0.4 1.6 -1.6
v -0.4 1.6 -1.7
v -0.4 1.7 -1.6
v -0.4 1.7 -1.7
v -0.4 1.7 -1.9
v -0.4 1.7 -2
v -0.4 1.8 -1.7
v -0.4 1.8 -1.9
v -0.3 0.3 0
v -0.3 0.3 -0.4
v -0.3 0.3 -0.7
v -0.3 0.3 -1
v -0.3 0.3 -1.1
v -0.3 0.3 -1.4
v -0.3 0.3 -1.6
v -0.3 0.4 -0.4
v -0.3 0.4 -0.5
v -0.3 0.4 -0.6
v -0.3 0.4 -0.7
v -0.3 0.4 -1.1
v -0.3 0.4 -1.2
v -0.3 0.5 0
v -0.3 0.5 -0.2
v -0.3 0.5 -0.5
v -0.3 0.5 -0.6
v -0.3 0.5 -1.4
v -0.3 0.5 -1.6
v -0.3 0.6 -0.1
v -0.3 0.6 -0.2
v -0.3 0.6 -1
v -0.3 0.6 -1.2
v -0.3 0.6 -1.6
v -0.3 0.7 0
v -0.3 0.7 -0.1
v -0.3 0.7 -1.6
v -0.3 0.9 -1.6
v -0.3 0.9 -1.7
v -0.3 0.9 -1.9
v -0.3 0.9 -2
v -0.3 1.1 -1.9
v -0.3 1.2 -1.9
v -0.3 1.2 -2
v -0.3 1.3 0
v -0.3 1.3 -0.1
v -0.3 1.3 -1.6
v -0.3 1.3 -1.7
v -0.3 1.3 -1.9
v -0.3 1.3 -2
v -0.3 1.4 -0.1
v -0.3 1.4 -0.2
v -0.3 1.4 -0.9
v -0.3 1.4 -1
v -0.3 1.5 0
v -0.3 1.5 -0.2
v -0.3 1.5 -0.7
v -0.3 1.5 -0.9
v -0.3 1.5 -1
v -0.3 1.5 -1.1
v -0.3 1.6 0
v -0.3 1.6 -0.7
v -0.3 1.6 -1.1
v -0.3 1.6 -1.6
v -0.3 1.7 -1.6
v -0.3 1.7 -1.7
v -0.3 1.7 -1.9
v -0.3 1.7 -2
v -0.3 1.8 -1.6
v -0.3 1.8 -1.7
v -0.3 1.8 -1.9
v -0.3 1.8 -2
v -0.1 0.3 0
v -0.1 0.3 -1
v -0.1 0.3 -1.4
v -0.1 0.3 -1.6
v -0.1 0.4 -0.3
v -0.1 0.4 -0.6
v -0.1 0.4 -1
v -0.1 0.4 -1.1
v -0.1 0.4 -1.2
v -0.1 0.4 -1.4
v -0.1 0.5 -0.5
v -0.1 0.5 -0.6
v -0.1 0.5 -1.1
v -0.1 0.5 -1.2
v -0.1 0.6 -0.3
v -0.1 0.6 -0.5
v -0.1 0.6 -0.8
v -0.1 0.6 -1.4
v -0.1 0.7 0
v -0.1 0.7 -0.8
v -0.1 0.7 -1.4
v -0.1 0.7 -1.6
v -0.1 0.9 -1.6
v -0.1 0.9 -1.7
v -0.1 0.9 -1.9
v -0.1 0.9 -2
v -0.1 1 -1.6
v -0.1 1 -1.7
v -0.1 1.1 -1.7
v -0.1 1.1 -1.9
v -0.1 1.2 -1.7
v -0.1 1.3 0
v -0.1 1.3 -0.5
v -0.1 1.3 -0.6
v -0.1 1.3 -0.9
v -0.1 1.3 -1
v -0.1 1.3 -1.3
v -0.1 1.3 -1.4
v -0.1 1.3 -1.6
v -0.1 1.3 -1.7
v -0.1 1.3 -1.9
v -0.1 1.3 -2
v -0.1 1.4 -0.4
v -0.1 1.4 -0.5
v -0.1 1.4 -1.2
v -0.1 1.4 -1.3
v -0.1 1.5 -0.4
v -0.1 1.5 -0.5
v -0.1 1.5 -0.9
v -0.1 1.5 -1
v -0.1 1.5 -1.2
v -0.1 1.5 -1.4
v -0.1 1.6 0
v -0.1 1.6 -0.5
v -0.1 1.6 -0.6
v -0.1 1.6 -1.6
v -0.1 1.7 -1.6
v -0.1 1.7 -1.7
v -0.1 1.7 -1.9
v -0.1 1.7 -2
v -0.1 1.8 -1.6
v -0.1 1.8 -1.7
v -0.1 1.8 -1.9
v -0.1 1.8 -2
v 0 0 -1.6
v 0 0 -2
v 0 0.1 -1.6
v 0 0.1 -2
v 0 0.4 -1.7
v 0 0.4 -1.9
v 0 0.5 -1.8
v 0 0.5 -1.9
v 0 0.6 -1.7
v 0 0.6 -1.8
v 0 0.9 -1.6
v 0 0.9 -1.7
v 0 0.9 -1.9
v 0 0.9 -2
v 0 1.1 -1.7
v 0 1.1 -1.9
v 0 1.2 -1.7
v 0 1.2 -1.8
v 0 1.3 -1.6
v 0 1.3 -1.7
v 0 1.3 -1.8
v 0 1.3 -1.9
v 0 1.3 -2
v 0 1.4 -1.8
v 0 1.4 -1.9
v 0 1.5 -1.7
v 0 1.5 -1.8
v 0 1.5 -1.9
v 0 1.6 -1.7
v 0 1.6 -1.8
v 0 1.7 -1.6
v 0 1.7 -1.7
v 0 1.7 -1.9
v 0 1.7 -2
v 0 1.8 -1.7
v 0 1.8 -1.9
v -0.3 0.3 0
v -0.3 0.5 0
v -0.3 0.7 0
v -0.3 1.3 0
v -0.3 1.5 0
v -0.3 1.6 0
v -0.2 0.5 0
v -0.2 0.7 0
v -0.2 1.3 0
v -0.2 1.5 0
v -0.1 0.3 0
v -0.1 0.7 0
v -0.1 1.3 0
v -0.1 1.6 0
v -0.4 0 -1.6
v -0.4 0.1 -1.6
v -0.4 0.3 -1.6
v -0.4 0.6 -1.6
v -0.4 0.9 -1.6
v -0.4 1.3 -1.6
v -0.4 1.6 -1.6
v -0.4 1.7 -1.6
v -0.3 0.2 -1.6
v -0.3 0.3 -1.6
v -0.3 0.5 -1.6
v -0.3 0.6 -1.6
v -0.3 0.7 -1.6
v -0.3 0.8 -1.6
v -0.3 0.9 -1.6
v -0.3 1.3 -1.6
v -0.3 1.6 -1.6
v -0.3 1.7 -1.6
v -0.3 1.8 -1.6
v -0.2 0.2 -1.6
v -0.2 0.3 -1.6
v -0.2 0.9 -1.6
v -0.2 1 -1.6
v -0.1 0.3 -1.6
v -0.1 0.7 -1.6
v -0.1 0.8 -1.6
v -0.1 0.9 -1.6
v -0.1 1 -1.6
v -0.1 1.3 -1.6
v -0.1 1.6 -1.6
v -0.1 1.7 -1.6
v -0.1 1.8 -1.6
v 0 0 -1.6
v 0 0.1 -1.6
v 0 0.9 -1.6
v 0 1.3 -1.6
v 0 1.7 -1.6
v -0.4 0.9 -1.7
v -0.4 1.3 -1.7
v -0.4 1.7 -1.7
v -0.4 1.8 -1.7
v -0.3 0.9 -1.7
v -0.3 1.3 -1.7
v -0.3 1.7 -1.7
v -0.3 1.8 -1.7
v -0.1 0.9 -1.7
v -0.1 1 -1.7
v -0.1 1.1 -1.7
v -0.1 1.2 -1.7
v -0.1 1.3 -1.7
v -0.1 1.7 -1.7
v -0.1 1.8 -1.7
v 0 0.9 -1.7
v 0 1.1 -1.7
v 0 1.2 -1.7
v 0 1.3 -1.7
v 0 1.7 -1.7
v 0 1.8 -1.7
v -0.4 0.9 -1.9
v -0.4 1.1 -1.9
v -0.4 1.3 -1.9
v -0.4 1.7 -1.9
v -0.4 1.8 -1.9
v -0.3 0.9 -1.9
v -0.3 1.1 -1.9
v -0.3 1.2 -1.9
v -0.3 1.3 -1.9
v -0.3 1.7 -1.9
v -0.3 1.8 -1.9
v -0.1 0.9 -1.9
v -0.1 1.1 -1.9
v -0.1 1.3 -1.9
v -0.1 1.7 -1.9
v -0.1 1.8 -1.9
v 0 0.9 -1.9
v 0 1.1 -1.9
v 0 1.3 -1.9
v 0 1.7 -1.9
v 0 1.8 -1.9
v -0.4 0 -2
v -0.4 0.1 -2
v -0.4 0.2 -2
v -0.4 0.3 -2
v -0.4 0.7 -2
v -0.4 0.8 -2
v -0.4 0.9 -2
v -0.4 1.3 -2
v -0.4 1.4 -2
v -0.4 1.7 -2
v -0.3 0.2 -2
v -0.3 0.3 -2
v -0.3 0.7 -2
v -0.3 0.8 -2
v -0.3 0.9 -2
v -0.3 1.2 -2
v -0.3 1.3 -2
v -0.3 1.4 -2
v -0.3 1.7 -2
v -0.3 1.8 -2
v -0.2 1.2 -2
v -0.2 1.3 -2
v -0.1 0.9 -2
v -0.1 1.3 -2
v -0.1 1.7 -2
v -0.1 1.8 -2
v 0 0 -2
v 0 0.1 -2
v 0 0.9 -2
v 0 1.3 -2
v 0 1.7 -2
v -0.4 0 -1.6
v 0 0 -1.6
v -0.4 0 -2
v 0 0 -2
v -0.3 0.3 0
v -0.1 0.3 0
v -0.3 0.3 -0.4
v -0.2 0.3 -0.4
v -0.3 0.3 -0.7
v -0.2 0.3 -0.7
v -0.3 0.3 -1
v -0.1 0.3 -1
v -0.3 0.3 -1.1
v -0.2 0.3 -1.1
v -0.3 0.3 -1.4
v -0.2 0.3 -1.4
v -0.1 0.3 -1.4
v -0.3 0.3 -1.6
v -0.2 0.3 -1.6
v -0.1 0.3 -1.6
v -0.3 1.3 0
v -0.2 1.3 0
v -0.1 1.3 0
v -0.3 1.3 -0.1
v -0.2 1.3 -0.1
v -0.2 1.3 -0.5
v -0.1 1.3 -0.5
v -0.2 1.3 -0.6
v -0.1 1.3 -0.6
v -0.2 1.3 -0.9
v -0.1 1.3 -0.9
v -0.2 1.3 -1
v -0.1 1.3 -1
v -0.2 1.3 -1.3
v -0.1 1.3 -1.3
v -0.2 1.3 -1.4
v -0.1 1.3 -1.4
v -0.4 1.3 -1.6
v -0.3 1.3 -1.6
v -0.1 1.3 -1.6
v 0 1.3 -1.6
v -0.4 1.3 -1.7
v -0.3 1.3 -1.7
v -0.1 1.3 -1.7
v 0 1.3 -1.7
v -0.4 1.3 -1.9
v -0.3 1.3 -1.9
v -0.1 1.3 -1.9
v 0 1.3 -1.9
v -0.4 1.3 -2
v -0.3 1.3 -2
v -0.1 1.3 -2
v 0 1.3 -2
v -0.3 0.7 0
v -0.2 0.7 0
v -0.1 0.7 0
v -0.3 0.7 -0.1
v -0.2 0.7 -0.1
v -0.2 0.7 -0.8
v -0.1 0.7 -0.8
v -0.2 0.7 -1.4
v -0.1 0.7 -1.4
v -0.3 0.7 -1.6
v -0.1 0.7 -1.6
v -0.4 0.9 -1.6
v -0.3 0.9 -1.6
v -0.1 0.9 -1.6
v 0 0.9 -1.6
v -0.4 0.9 -1.7
v -0.3 0.9 -1.7
v -0.1 0.9 -1.7
v 0 0.9 -1.7
v -0.4 0.9 -1.9
v -0.3 0.9 -1.9
v -0.1 0.9 -1.9
v 0 0.9 -1.9
v -0.4 0.9 -2
v -0.3 0.9 -2
v -0.1 0.9 -2
v 0 0.9 -2
v -0.3 1.6 0
v -0.1 1.6 0
v -0.2 1.6 -0.5
v -0.1 1.6 -0.5
v -0.2 1.6 -0.6
v -0.1 1.6 -0.6
v -0.3 1.6 -0.7
v -0.2 1.6 -0.7
v -0.3 1.6 -1.1
v -0.2 1.6 -1.1
v -0.3 1.6 -1.6
v -0.1 1.6 -1.6
v -0.4 1.7 -1.6
v -0.3 1.7 -1.6
v -0.1 1.7 -1.6
v 0 1.7 -1.6
v -0.4 1.7 -1.7
v -0.3 1.7 -1.7
v -0.1 1.7 -1.7
v 0 1.7 -1.7
v -0.4 1.7 -1.9
v -0.3 1.7 -1.9
v -0.1 1.7 -1.9
v 0 1.7 -1.9
v -0.4 1.7 -2
v -0.3 1.7 -2
v -0.1 1.7 -2
v 0 1.7 -2
v -0.3 1.8 -1.6
v -0.1 1.8 -1.6
v -0.4 1.8 -1.7
v -0.3 1.8 -1.7
v -0.1 1.8 -1.7
v 0 1.8 -1.7
v -0.4 1.8 -1.9
v -0.3 1.8 -1.9
v -0.1 1.8 -1.9
v 0 1.8 -1.9
v -0.3 1.8 -2
v -0.1 1.8 -2

# faces
f 3/2/1 2/2/1 1/2/1
f 4/2/1 2/2/1 3/2/1
f 5/1/1 4/1/1 3/1/1
f 6/1/1 4/1/1 5/1/1
f 7/1/1 5/1/1 3/1/1
f 8/1/1 5/1/1 7/1/1
f 9/2/1 6/2/1 5/2/1
f 9/1/1 5/1/1 8/1/1
f 10/2/1 6/2/1 9/2/1
f 11/2/1 8/2/1 7/2/1
f 12/1/1 9/1/1 8/1/1
f 12/2/1 8/2/1 11/2/1
f 12/1/1 10/1/1 9/1/1
f 13/1/1 10/1/1 12/1/1
f 14/1/1 10/1/1 13/1/1
f 15/1/1 12/1/1 11/1/1
f 15/1/1 13/1/1 12/1/1
f 15/2/1 14/2/1 13/2/1
f 16/1/1 10/1/1 14/1/1
f 16/2/1 14/2/1 15/2/1
f 17/1/1 10/1/1 16/1/1
f 18/1/1 16/1/1 15/1/1
f 18/2/1 17/2/1 16/2/1
f 19/2/1 17/2/1 18/2/1
f 20/1/1 15/1/1 11/1/1
f 20/1/1 18/1/1 15/1/1
f 20/1/1 19/1/1 18/1/1
f 21/1/1 19/1/1 20/1/1
f 22/1/1 19/1/1 21/1/1
f 23/1/1 19/1/1 22/1/1
f 24/1/1 22/1/1 21/1/1
f 25/1/1 22/1/1 24/1/1
f 27/1/1 24/1/1 21/1/1
f 28/2/1 25/2/1 24/2/1
f 28/1/1 24/1/1 27/1/1
f 29/2/1 25/2/1 28/2/1
f 31/1/1 29/1/1 28/1/1
f 31/2/1 30/2/1 29/2/1
f 31/1/1 28/1/1 27/1/1
f 31/1/1 27/1/1 26/1/1
f 32/2/1 30/2/1 31/2/1
f 33/1/1 31/1/1 26/1/1
f 33/1/1 32/1/1 31/1/1
f 34/1/1 32/1/1 33/1/1
f 35/2/1 34/2/1 33/2/1
f 36/1/1 32/1/1 34/1/1
f 36/2/1 34/2/1 35/2/1
f 37/1/1 32/1/1 36/1/1
f 38/1/1 32/1/1 37/1/1
f 39/2/1 37/2/1 36/2/1
f 40/2/1 37/2/1 39/2/1
f 48/1/1 42/1/1 41/1/1
f 48/2/1 43/2/1 42/2/1
f 49/2/1 43/2/1 48/2/1
f 50/2/1 43/2/1 49/2/1
f 51/1/1 44/1/1 43/1/1
f 51/2/1 43/2/1 50/2/1
f 52/1/1 46/1/1 45/1/1
f 52/2/1 45/2/1 44/2/1
f 53/1/1 46/1/1 52/1/1
f 54/1/1 48/1/1 41/1/1
f 54/1/1 49/1/1 48/1/1
f 55/1/1 49/1/1 54/1/1
f 56/2/1 50/2/1 49/2/1
f 56/1/1 49/1/1 55/1/1
f 57/1/1 51/1/1 50/1/1
f 57/2/1 50/2/1 56/2/1
f 58/2/1 47/2/1 46/2/1
f 58/1/1 46/1/1 53/1/1
f 59/2/1 47/2/1 58/2/1
f 60/2/1 55/2/1 54/2/1
f 61/1/1 56/1/1 55/1/1
f 61/2/1 55/2/1 60/2/1
f 61/1/1 57/1/1 56/1/1
f 62/1/1 51/1/1 57/1/1
f 62/1/1 57/1/1 61/1/1
f 62/1/1 44/1/1 51/1/1
f 62/2/1 53/2/1 52/2/1
f 62/2/1 52/2/1 44/2/1
f 63/1/1 58/1/1 53/1/1
f 63/2/1 53/2/1 62/2/1
f 63/1/1 59/1/1 58/1/1
f 64/1/1 59/1/1 63/1/1
f 65/2/1 60/2/1 54/2/1
f 66/1/1 61/1/1 60/1/1
f 66/2/1 60/2/1 65/2/1
f 66/1/1 62/1/1 61/1/1
f 66/1/1 64/1/1 63/1/1
f 66/1/1 63/1/1 62/1/1
f 67/1/1 64/1/1 66/1/1
f 72/1/1 71/1/1 70/1/1
f 73/1/1 71/1/1 72/1/1
f 74/1/1 71/1/1 73/1/1
f 77/1/1 69/1/1 68/1/1
f 78/1/1 69/1/1 77/1/1
f 79/2/1 74/2/1 73/2/1
f 80/2/1 74/2/1 79/2/1
f 81/2/1 76/2/1 75/2/1
f 81/1/1 77/1/1 76/1/1
f 82/1/1 77/1/1 81/1/1
f 83/1/1 77/1/1 82/1/1
f 84/1/1 77/1/1 83/1/1
f 85/2/1 81/2/1 75/2/1
f 85/2/1 82/2/1 81/2/1
f 86/1/1 83/1/1 82/1/1
f 86/2/1 82/2/1 85/2/1
f 87/1/1 83/1/1 86/1/1
f 88/2/1 84/2/1 83/2/1
f 88/1/1 83/1/1 87/1/1
f 89/1/1 77/1/1 84/1/1
f 89/2/1 84/2/1 88/2/1
f 90/1/1 77/1/1 89/1/1
f 91/1/1 87/1/1 86/1/1
f 91/1/1 86/1/1 85/1/1
f 92/2/1 88/2/1 87/2/1
f 92/1/1 87/1/1 91/1/1
f 92/2/1 90/2/1 89/2/1
f 92/2/1 89/2/1 88/2/1
f 93/1/1 77/1/1 90/1/1
f 93/2/1 90/2/1 92/2/1
f 94/1/1 77/1/1 93/1/1
f 99/2/1 96/2/1 95/2/1
f 100/2/1 96/2/1 99/2/1
f 101/2/1 98/2/1 97/2/1
f 102/2/1 98/2/1 101/2/1
f 103/1/2 104/1/2 107/1/2
f 107/1/2 104/1/2 108/1/2
f 104/2/2 105/2/2 109/2/2
f 108/1/2 104/1/2 109/1/2
f 109/2/2 105/2/2 110/2/2
f 110/2/2 105/2/2 111/2/2
f 105/1/2 106/1/2 112/1/2
f 111/2/2 105/2/2 112/2/2
f 107/2/2 108/2/2 113/2/2
f 108/1/2 109/1/2 114/1/2
f 113/2/2 108/2/2 114/2/2
f 109/1/2 110/1/2 114/1/2
f 110/2/2 111/2/2 115/2/2
f 114/1/2 110/1/2 115/1/2
f 111/1/2 112/1/2 116/1/2
f 115/2/2 111/2/2 116/2/2
f 103/1/2 107/1/2 117/1/2
f 107/2/2 113/2/2 117/2/2
f 113/1/2 114/1/2 118/1/2
f 117/2/2 113/2/2 118/2/2
f 115/1/2 116/1/2 118/1/2
f 114/1/2 115/1/2 118/1/2
f 118/1/2 116/1/2 119/1/2
f 112/1/2 106/1/2 120/1/2
f 119/1/2 116/1/2 120/1/2
f 116/1/2 112/1/2 120/1/2
f 103/1/2 117/1/2 121/1/2
f 118/1/2 119/1/2 121/1/2
f 117/1/2 118/1/2 121/1/2
f 119/2/2 120/2/2 122/2/2
f 121/1/2 119/1/2 122/1/2
f 120/1/2 106/1/2 123/1/2
f 122/2/2 120/2/2 123/2/2
f 123/1/2 106/1/2 124/1/2
f 125/2/2 126/2/2 129/2/2
f 129/2/2 126/2/2 130/2/2
f 129/1/2 130/1/2 131/1/2
f 127/1/2 128/1/2 132/1/2
f 129/1/2 131/1/2 133/1/2
f 129/1/2 133/1/2 141/1/2
f 141/1/2 133/1/2 142/1/2
f 132/1/2 128/1/2 143/1/2
f 143/1/2 128/1/2 144/1/2
f 134/1/2 135/1/2 145/1/2
f 135/2/2 136/2/2 146/2/2
f 145/1/2 135/1/2 146/1/2
f 138/1/2 139/1/2 147/1/2
f 139/2/2 140/2/2 148/2/2
f 147/1/2 139/1/2 148/1/2
f 134/1/2 145/1/2 149/1/2
f 145/2/2 146/2/2 149/2/2
f 146/2/2 136/2/2 150/2/2
f 149/2/2 146/2/2 150/2/2
f 136/1/2 137/1/2 151/1/2
f 137/2/2 138/2/2 151/2/2
f 138/1/2 147/1/2 152/1/2
f 151/2/2 138/2/2 152/2/2
f 147/2/2 148/2/2 153/2/2
f 152/1/2 147/1/2 153/1/2
f 140/1/2 141/1/2 154/1/2
f 153/2/2 148/2/2 154/2/2
f 148/2/2 140/2/2 154/2/2
f 149/1/2 150/1/2 155/1/2
f 134/1/2 149/1/2 155/1/2
f 150/2/2 136/2/2 156/2/2
f 155/1/2 150/1/2 156/1/2
f 136/1/2 151/1/2 157/1/2
f 156/2/2 136/2/2 157/2/2
f 152/1/2 153/1/2 157/1/2
f 151/1/2 152/1/2 157/1/2
f 153/1/2 154/1/2 157/1/2
f 154/1/2 141/1/2 158/1/2
f 157/1/2 154/1/2 158/1/2
f 159/2/2 160/2/2 163/2/2
f 163/2/2 160/2/2 164/2/2
f 161/2/2 162/2/2 165/2/2
f 165/2/2 162/2/2 166/2/2
f 167/2/2 168/2/2 169/2/2
f 169/2/2 168/2/2 170/2/2
f 169/1/2 170/1/2 171/1/2
f 171/1/2 170/1/2 172/1/2
f 171/2/2 172/2/2 173/2/2
f 172/1/2 170/1/2 174/1/2
f 173/2/2 172/2/2 174/2/2
f 169/1/2 171/1/2 175/1/2
f 171/2/2 173/2/2 175/2/2
f 173/1/2 174/1/2 176/1/2
f 175/2/2 173/2/2 176/2/2
f 169/1/2 175/1/2 177/1/2
f 175/1/2 176/1/2 177/1/2
f 177/1/2 176/1/2 178/1/2
f 174/1/2 170/1/2 179/1/2
f 178/1/2 176/1/2 179/1/2
f 176/1/2 174/1/2 179/1/2
f 179/1/2 170/1/2 180/1/2
f 178/1/2 179/1/2 181/1/2
f 181/1/2 179/1/2 182/1/2
f 181/2/2 182/2/2 183/2/2
f 183/2/2 182/2/2 184/2/2
f 183/1/2 184/1/2 186/1/2
f 184/2/2 182/2/2 187/2/2
f 186/1/2 184/1/2 187/1/2
f 187/2/2 182/2/2 188/2/2
f 187/1/2 188/1/2 190/1/2
f 188/1/2 189/1/2 190/1/2
f 186/1/2 187/1/2 190/1/2
f 185/1/2 186/1/2 190/1/2
f 190/1/2 189/1/2 191/1/2
f 185/1/2 190/1/2 192/1/2
f 190/2/2 191/2/2 193/2/2
f 192/1/2 190/1/2 193/1/2
f 191/1/2 189/1/2 194/1/2
f 193/2/2 191/2/2 194/2/2
f 192/2/2 193/2/2 195/2/2
f 185/1/2 192/1/2 195/1/2
f 193/1/2 194/1/2 196/1/2
f 195/2/2 193/2/2 196/2/2
f 185/1/2 195/1/2 197/1/2
f 195/1/2 196/1/2 197/1/2
f 197/1/2 196/1/2 198/1/2
f 194/1/2 189/1/2 199/1/2
f 198/1/2 196/1/2 199/1/2
f 196/1/2 194/1/2 199/1/2
f 199/1/2 189/1/2 200/1/2
f 198/2/2 199/2/2 201/2/2
f 201/2/2 199/2/2 202/2/2
f 209/1/3 204/1/3 203/1/3
f 209/2/3 205/2/3 204/2/3
f 210/2/3 205/2/3 209/2/3
f 211/2/3 207/2/3 206/2/3
f 212/1/3 208/1/3 207/1/3
f 212/2/3 207/2/3 211/2/3
f 213/1/3 210/1/3 209/1/3
f 213/1/3 209/1/3 203/1/3
f 214/1/3 210/1/3 213/1/3
f 215/1/3 212/1/3 211/1/3
f 216/1/3 208/1/3 212/1/3
f 216/1/3 212/1/3 215/1/3
f 225/1/3 219/1/3 218/1/3
f 226/2/3 220/2/3 219/2/3
f 226/1/3 219/1/3 225/1/3
f 227/2/3 220/2/3 226/2/3
f 228/1/3 221/1/3 220/1/3
f 228/2/3 220/2/3 227/2/3
f 229/1/3 221/1/3 228/1/3
f 230/1/3 221/1/3 229/1/3
f 231/1/3 221/1/3 230/1/3
f 232/1/3 223/1/3 222/1/3
f 233/2/3 224/2/3 223/2/3
f 233/1/3 223/1/3 232/1/3
f 234/2/3 224/2/3 233/2/3
f 236/1/3 225/1/3 218/1/3
f 236/2/3 226/2/3 225/2/3
f 237/2/3 226/2/3 236/2/3
f 238/1/3 232/1/3 231/1/3
f 238/2/3 231/2/3 230/2/3
f 239/1/3 232/1/3 238/1/3
f 240/1/3 237/1/3 236/1/3
f 241/1/3 230/1/3 229/1/3
f 242/2/3 238/2/3 230/2/3
f 242/2/3 239/2/3 238/2/3
f 242/1/3 230/1/3 241/1/3
f 243/2/3 239/2/3 242/2/3
f 244/1/3 232/1/3 239/1/3
f 244/2/3 239/2/3 243/2/3
f 245/1/3 232/1/3 244/1/3
f 246/1/3 234/1/3 233/1/3
f 247/2/3 235/2/3 234/2/3
f 247/1/3 234/1/3 246/1/3
f 248/2/3 235/2/3 247/2/3
f 249/2/3 218/2/3 217/2/3
f 250/1/3 243/1/3 242/1/3
f 250/2/3 218/2/3 249/2/3
f 250/1/3 236/1/3 218/1/3
f 250/1/3 240/1/3 236/1/3
f 250/1/3 242/1/3 241/1/3
f 250/1/3 241/1/3 240/1/3
f 251/1/3 243/1/3 250/1/3
f 252/1/3 246/1/3 245/1/3
f 252/1/3 247/1/3 246/1/3
f 253/1/3 247/1/3 252/1/3
f 258/1/3 255/1/3 254/1/3
f 259/1/3 255/1/3 258/1/3
f 260/2/3 257/2/3 256/2/3
f 261/2/3 257/2/3 260/2/3
f 269/1/3 263/1/3 262/1/3
f 269/1/3 264/1/3 263/1/3
f 270/2/3 265/2/3 264/2/3
f 270/1/3 264/1/3 269/1/3
f 271/1/3 266/1/3 265/1/3
f 271/2/3 265/2/3 270/2/3
f 272/1/3 266/1/3 271/1/3
f 273/2/3 268/2/3 267/2/3
f 274/2/3 268/2/3 273/2/3
f 275/1/4 276/1/4 280/1/4
f 276/2/4 277/2/4 281/2/4
f 280/1/4 276/1/4 281/1/4
f 281/2/4 277/2/4 282/2/4
f 282/2/4 277/2/4 283/2/4
f 278/2/4 279/2/4 284/2/4
f 284/2/4 279/2/4 285/2/4
f 286/1/4 287/1/4 291/1/4
f 287/2/4 288/2/4 292/2/4
f 291/1/4 287/1/4 292/1/4
f 292/2/4 288/2/4 293/2/4
f 289/2/4 290/2/4 294/2/4
f 294/2/4 290/2/4 295/2/4
f 297/1/4 298/1/4 306/1/4
f 298/2/4 299/2/4 306/2/4
f 299/1/4 300/1/4 307/1/4
f 306/2/4 299/2/4 307/2/4
f 300/2/4 301/2/4 308/2/4
f 307/1/4 300/1/4 308/1/4
f 301/1/4 302/1/4 309/1/4
f 308/2/4 301/2/4 309/2/4
f 309/1/4 302/1/4 310/1/4
f 303/2/4 304/2/4 312/2/4
f 304/1/4 305/1/4 313/1/4
f 312/2/4 304/2/4 313/2/4
f 313/1/4 305/1/4 314/1/4
f 311/2/4 312/2/4 316/2/4
f 310/1/4 311/1/4 316/1/4
f 306/1/4 307/1/4 316/1/4
f 307/1/4 308/1/4 316/1/4
f 308/1/4 309/1/4 316/1/4
f 309/1/4 310/1/4 316/1/4
f 313/1/4 314/1/4 317/1/4
f 316/2/4 312/2/4 317/2/4
f 312/1/4 313/1/4 317/1/4
f 306/1/4 316/1/4 318/1/4
f 316/1/4 317/1/4 318/1/4
f 317/1/4 314/1/4 319/1/4
f 318/1/4 317/1/4 319/1/4
f 314/2/4 315/2/4 320/2/4
f 319/1/4 314/1/4 320/1/4
f 320/2/4 315/2/4 321/2/4
f 296/2/4 297/2/4 322/2/4
f 306/1/4 318/1/4 323/1/4
f 322/2/4 297/2/4 323/2/4
f 297/1/4 306/1/4 323/1/4
f 323/1/4 318/1/4 324/1/4
f 319/1/4 320/1/4 325/1/4
f 325/1/4 320/1/4 326/1/4
f 329/2/5 328/2/5 327/2/5
f 330/2/5 328/2/5 329/2/5
f 333/1/5 332/1/5 331/1/5
f 334/1/5 332/1/5 333/1/5
f 335/2/5 334/2/5 333/2/5
f 336/1/5 332/1/5 334/1/5
f 336/2/5 334/2/5 335/2/5
f 337/1/5 336/1/5 335/1/5
f 338/1/5 332/1/5 336/1/5
f 338/1/5 336/1/5 337/1/5
f 339/2/5 338/2/5 337/2/5
f 340/2/5 338/2/5 339/2/5
f 341/1/5 340/1/5 339/1/5
f 342/2/5 338/2/5 340/2/5
f 342/1/5 340/1/5 341/1/5
f 343/2/5 338/2/5 342/2/5
f 344/2/5 342/2/5 341/2/5
f 345/1/5 343/1/5 342/1/5
f 345/2/5 342/2/5 344/2/5
f 346/1/5 343/1/5 345/1/5
f 350/2/5 348/2/5 347/2/5
f 351/1/5 349/1/5 348/1/5
f 351/2/5 348/2/5 350/2/5
f 352/1/5 351/1/5 350/1/5
f 352/1/5 349/1/5 351/1/5
f 353/1/5 349/1/5 352/1/5
f 354/1/5 352/1/5 350/1/5
f 354/2/5 353/2/5 352/2/5
f 355/2/5 353/2/5 354/2/5
f 356/1/5 354/1/5 350/1/5
f 356/1/5 355/1/5 354/1/5
f 357/1/5 355/1/5 356/1/5
f 358/1/5 356/1/5 350/1/5
f 358/2/5 357/2/5 356/2/5
f 359/2/5 357/2/5 358/2/5
f 360/1/5 358/1/5 350/1/5
f 360/1/5 359/1/5 358/1/5
f 361/1/5 359/1/5 360/1/5
f 362/1/5 360/1/5 350/1/5
f 362/2/5 361/2/5 360/2/5
f 363/2/5 361/2/5 362/2/5
f 365/1/5 362/1/5 350/1/5
f 365/1/5 363/1/5 362/1/5
f 366/1/5 363/1/5 365/1/5
f 368/1/5 365/1/5 364/1/5
f 369/1/5 365/1/5 368/1/5
f 370/1/5 367/1/5 366/1/5
f 371/1/5 367/1/5 370/1/5
f 376/2/5 373/2/5 372/2/5
f 377/2/5 373/2/5 376/2/5
f 378/1/5 375/1/5 374/1/5
f 379/1/5 375/1/5 378/1/5
f 380/2/6 381/2/6 383/2/6
f 381/1/6 382/1/6 384/1/6
f 383/2/6 381/2/6 384/2/6
f 383/1/6 384/1/6 385/1/6
f 384/1/6 382/1/6 385/1/6
f 385/1/6 382/1/6 386/1/6
f 383/1/6 385/1/6 387/1/6
f 385/2/6 386/2/6 387/2/6
f 387/2/6 386/2/6 388/2/6
f 383/1/6 387/1/6 389/1/6
f 387/1/6 388/1/6 389/1/6
f 389/1/6 388/1/6 390/1/6
f 391/1/6 392/1/6 395/1/6
f 395/1/6 392/1/6 396/1/6
f 393/1/6 394/1/6 397/1/6
f 397/1/6 394/1/6 398/1/6
f 399/1/6 400/1/6 403/1/6
f 403/1/6 400/1/6 404/1/6
f 401/1/6 402/1/6 405/1/6
f 405/1/6 402/1/6 406/1/6
f 407/1/6 408/1/6 409/1/6
f 409/1/6 408/1/6 410/1/6
f 407/1/6 409/1/6 411/1/6
f 409/2/6 410/2/6 411/2/6
f 411/2/6 410/2/6 412/2/6
f 407/1/6 411/1/6 413/1/6
f 411/1/6 412/1/6 413/1/6
f 413/1/6 412/1/6 414/1/6
f 413/2/6 414/2/6 415/2/6
f 414/1/6 412/1/6 416/1/6
f 415/2/6 414/2/6 416/2/6
f 415/1/6 416/1/6 417/1/6
f 416/1/6 412/1/6 418/1/6
f 417/1/6 416/1/6 418/1/6
f 419/2/6 420/2/6 423/2/6
f 423/2/6 420/2/6 424/2/6
f 421/1/6 422/1/6 425/1/6
f 425/1/6 422/1/6 426/1/6
f 427/1/6 428/1/6 431/1/6
f 431/1/6 428/1/6 432/1/6
f 429/1/6 430/1/6 433/1/6
f 433/1/6 430/1/6 434/1/6
f 435/2/6 436/2/6 438/2/6
f 438/2/6 436/2/6 439/2/6
f 437/2/6 438/2/6 441/2/6
f 438/3/6 439/3/6 442/3/6
f 441/2/6 438/2/6 442/2/6
f 439/2/6 440/2/6 443/2/6
f 442/3/6 439/3/6 443/3/6
f 443/2/6 440/2/6 444/2/6
f 442/2/6 443/2/6 445/2/6
f 445/2/6 443/2/6 446/2/6
