# MagicaVoxel @ Ephtracy

# group
o 

# material
mtllib prop_designy_statue.mtl
usemtl palette

# normals
vn -1 0 0
vn 1 0 0
vn 0 0 1
vn 0 0 -1
vn 0 -1 0
vn 0 1 0

# texcoords
vt 0.224609 0.5
vt 0.232422 0.5
vt 0.962891 0.5

# verts
v -0.3 0 0.9
v -0.3 0 -1
v -0.3 0.1 0.9
v -0.3 0.1 0.7
v -0.3 0.1 0.2
v -0.3 0.1 0.1
v -0.3 0.1 -0.9
v -0.3 0.4 0.1
v -0.3 0.4 -0.9
v -0.3 0.5 0.2
v -0.3 0.5 -0.3
v -0.3 0.5 -0.5
v -0.3 0.5 -1
v -0.3 1.2 1.2
v -0.3 1.2 0.9
v -0.3 1.2 0.7
v -0.3 1.2 -0.3
v -0.3 1.2 -0.5
v -0.3 1.2 -0.7
v -0.3 1.3 1.1
v -0.3 1.3 -0.6
v -0.3 1.6 1.1
v -0.3 1.6 -0.6
v -0.3 1.7 1.2
v -0.3 1.7 0.9
v -0.3 1.7 0.7
v -0.3 1.7 -0.3
v -0.3 1.7 -0.5
v -0.3 1.7 -0.7
v -0.3 1.9 -0.3
v -0.3 1.9 -0.5
v -0.3 3.2 -0.2
v -0.3 3.2 -1
v -0.3 3.3 0.7
v -0.3 3.3 -0.2
v -0.3 3.3 -0.3
v -0.3 3.3 -0.9
v -0.3 3.4 0.9
v -0.3 3.4 -0.2
v -0.3 3.6 -0.3
v -0.3 3.6 -0.9
v -0.3 3.7 -0.2
v -0.3 3.7 -1
v -0.2 1.9 0
v -0.2 1.9 -0.3
v -0.2 1.9 -0.5
v -0.2 1.9 -0.7
v -0.2 2 -0.0999999
v -0.2 2 -0.6
v -0.2 2.6 -0.0999999
v -0.2 2.6 -0.6
v -0.2 2.7 0
v -0.2 2.7 -0.3
v -0.2 2.7 -0.5
v -0.2 2.7 -0.7
v -0.2 3.2 -0.3
v -0.2 3.2 -0.5
v 0.3 1.9 0
v 0.3 1.9 -0.3
v 0.3 1.9 -0.5
v 0.3 1.9 -0.7
v 0.3 2 -0.0999999
v 0.3 2 -0.6
v 0.3 2.6 -0.0999999
v 0.3 2.6 -0.6
v 0.3 2.7 0
v 0.3 2.7 -0.3
v 0.3 2.7 -0.5
v 0.3 2.7 -0.7
v 0.3 3.2 -0.3
v 0.3 3.2 -0.5
v 0.4 0 0.9
v 0.4 0 -1
v 0.4 0.1 0.9
v 0.4 0.1 0.7
v 0.4 0.1 0.2
v 0.4 0.1 0.1
v 0.4 0.1 -0.9
v 0.4 0.4 0.1
v 0.4 0.4 -0.9
v 0.4 0.5 0.2
v 0.4 0.5 -0.3
v 0.4 0.5 -0.5
v 0.4 0.5 -1
v 0.4 1.2 1.2
v 0.4 1.2 0.9
v 0.4 1.2 0.7
v 0.4 1.2 -0.3
v 0.4 1.2 -0.5
v 0.4 1.2 -0.7
v 0.4 1.3 1.1
v 0.4 1.3 -0.6
v 0.4 1.6 1.1
v 0.4 1.6 -0.6
v 0.4 1.7 1.2
v 0.4 1.7 0.9
v 0.4 1.7 0.7
v 0.4 1.7 -0.3
v 0.4 1.7 -0.5
v 0.4 1.7 -0.7
v 0.4 1.9 -0.3
v 0.4 1.9 -0.5
v 0.4 3.2 -0.2
v 0.4 3.2 -1
v 0.4 3.3 0.7
v 0.4 3.3 -0.2
v 0.4 3.3 -0.3
v 0.4 3.3 -0.9
v 0.4 3.4 0.9
v 0.4 3.4 -0.2
v 0.4 3.6 -0.3
v 0.4 3.6 -0.9
v 0.4 3.7 -0.2
v 0.4 3.7 -1
v -0.3 1.2 1.2
v -0.3 1.7 1.2
v -0.2 1.2 1.2
v -0.2 1.7 1.2
v 0.3 1.2 1.2
v 0.3 1.7 1.2
v 0.4 1.2 1.2
v 0.4 1.7 1.2
v -0.3 0 0.9
v -0.3 0.1 0.9
v -0.3 1.2 0.9
v -0.3 1.7 0.9
v -0.3 3.4 0.9
v -0.2 0 0.9
v -0.2 0.1 0.9
v -0.2 1.2 0.9
v -0.2 1.7 0.9
v 0.3 0 0.9
v 0.3 0.1 0.9
v 0.3 1.2 0.9
v 0.3 1.7 0.9
v 0.4 0 0.9
v 0.4 0.1 0.9
v 0.4 1.2 0.9
v 0.4 1.7 0.9
v 0.4 3.4 0.9
v -0.3 0.1 0.2
v -0.3 0.5 0.2
v -0.2 0.1 0.2
v -0.2 0.5 0.2
v 0.3 0.1 0.2
v 0.3 0.5 0.2
v 0.4 0.1 0.2
v 0.4 0.5 0.2
v -0.2 1.9 0
v -0.2 2.7 0
v -0.1 1.9 0
v -0.1 2.7 0
v 0.2 1.9 0
v 0.2 2.7 0
v 0.3 1.9 0
v 0.3 2.7 0
v -0.3 3.2 -0.2
v -0.3 3.3 -0.2
v -0.3 3.4 -0.2
v -0.3 3.7 -0.2
v -0.2 3.2 -0.2
v -0.2 3.3 -0.2
v -0.2 3.4 -0.2
v -0.2 3.7 -0.2
v 0.3 3.2 -0.2
v 0.3 3.3 -0.2
v 0.3 3.4 -0.2
v 0.3 3.7 -0.2
v 0.4 3.2 -0.2
v 0.4 3.3 -0.2
v 0.4 3.4 -0.2
v 0.4 3.7 -0.2
v -0.3 0.5 -0.3
v -0.3 1.2 -0.3
v -0.3 1.7 -0.3
v -0.3 1.9 -0.3
v -0.2 0.5 -0.3
v -0.2 1.2 -0.3
v -0.2 1.7 -0.3
v -0.2 1.9 -0.3
v -0.2 2.7 -0.3
v -0.2 3.2 -0.3
v -0.1 1.9 -0.3
v -0.1 2.7 -0.3
v 0.2 1.9 -0.3
v 0.2 2.7 -0.3
v 0.3 0.5 -0.3
v 0.3 1.2 -0.3
v 0.3 1.7 -0.3
v 0.3 1.9 -0.3
v 0.3 2.7 -0.3
v 0.3 3.2 -0.3
v 0.4 0.5 -0.3
v 0.4 1.2 -0.3
v 0.4 1.7 -0.3
v 0.4 1.9 -0.3
v -0.3 1.3 -0.6
v -0.3 1.6 -0.6
v -0.2 1.3 -0.6
v -0.2 1.6 -0.6
v -0.2 2 -0.6
v -0.2 2.6 -0.6
v -0.1 2 -0.6
v -0.1 2.6 -0.6
v 0.2 2 -0.6
v 0.2 2.6 -0.6
v 0.3 1.3 -0.6
v 0.3 1.6 -0.6
v 0.3 2 -0.6
v 0.3 2.6 -0.6
v 0.4 1.3 -0.6
v 0.4 1.6 -0.6
v -0.3 0.1 -0.9
v -0.3 0.4 -0.9
v -0.3 3.3 -0.9
v -0.3 3.6 -0.9
v -0.2 0.1 -0.9
v -0.2 0.4 -0.9
v -0.2 3.3 -0.9
v -0.2 3.6 -0.9
v 0.3 0.1 -0.9
v 0.3 0.4 -0.9
v 0.3 3.3 -0.9
v 0.3 3.6 -0.9
v 0.4 0.1 -0.9
v 0.4 0.4 -0.9
v 0.4 3.3 -0.9
v 0.4 3.6 -0.9
v -0.3 1.3 1.1
v -0.3 1.6 1.1
v -0.2 1.3 1.1
v -0.2 1.6 1.1
v 0.3 1.3 1.1
v 0.3 1.6 1.1
v 0.4 1.3 1.1
v 0.4 1.6 1.1
v -0.3 0.1 0.7
v -0.3 1.2 0.7
v -0.3 1.7 0.7
v -0.3 3.3 0.7
v -0.2 0.1 0.7
v -0.2 1.2 0.7
v -0.2 1.7 0.7
v 0.3 0.1 0.7
v 0.3 1.2 0.7
v 0.3 1.7 0.7
v 0.4 0.1 0.7
v 0.4 1.2 0.7
v 0.4 1.7 0.7
v 0.4 3.3 0.7
v -0.3 0.1 0.1
v -0.3 0.4 0.1
v -0.2 0.1 0.1
v -0.2 0.4 0.1
v 0.3 0.1 0.1
v 0.3 0.4 0.1
v 0.4 0.1 0.1
v 0.4 0.4 0.1
v -0.2 2 -0.0999999
v -0.2 2.6 -0.0999999
v -0.1 2 -0.0999999
v -0.1 2.6 -0.0999999
v 0.2 2 -0.0999999
v 0.2 2.6 -0.0999999
v 0.3 2 -0.0999999
v 0.3 2.6 -0.0999999
v -0.3 3.3 -0.3
v -0.3 3.6 -0.3
v -0.2 3.3 -0.3
v -0.2 3.6 -0.3
v 0.3 3.3 -0.3
v 0.3 3.6 -0.3
v 0.4 3.3 -0.3
v 0.4 3.6 -0.3
v -0.3 0.5 -0.5
v -0.3 1.2 -0.5
v -0.3 1.7 -0.5
v -0.3 1.9 -0.5
v -0.2 0.5 -0.5
v -0.2 1.2 -0.5
v -0.2 1.7 -0.5
v -0.2 1.9 -0.5
v -0.2 2.7 -0.5
v -0.2 3.2 -0.5
v -0.1 1.9 -0.5
v -0.1 2.7 -0.5
v 0.2 1.9 -0.5
v 0.2 2.7 -0.5
v 0.3 0.5 -0.5
v 0.3 1.2 -0.5
v 0.3 1.7 -0.5
v 0.3 1.9 -0.5
v 0.3 2.7 -0.5
v 0.3 3.2 -0.5
v 0.4 0.5 -0.5
v 0.4 1.2 -0.5
v 0.4 1.7 -0.5
v 0.4 1.9 -0.5
v -0.3 1.2 -0.7
v -0.3 1.7 -0.7
v -0.2 1.2 -0.7
v -0.2 1.7 -0.7
v -0.2 1.9 -0.7
v -0.2 2.7 -0.7
v -0.1 1.9 -0.7
v -0.1 2.7 -0.7
v 0.2 1.9 -0.7
v 0.2 2.7 -0.7
v 0.3 1.2 -0.7
v 0.3 1.7 -0.7
v 0.3 1.9 -0.7
v 0.3 2.7 -0.7
v 0.4 1.2 -0.7
v 0.4 1.7 -0.7
v -0.3 0 -1
v -0.3 0.5 -1
v -0.3 3.2 -1
v -0.3 3.7 -1
v -0.2 0 -1
v -0.2 0.5 -1
v -0.2 3.2 -1
v -0.2 3.7 -1
v 0.3 0 -1
v 0.3 0.5 -1
v 0.3 3.2 -1
v 0.3 3.7 -1
v 0.4 0 -1
v 0.4 0.5 -1
v 0.4 3.2 -1
v 0.4 3.7 -1
v -0.3 0 0.9
v -0.2 0 0.9
v 0.3 0 0.9
v 0.4 0 0.9
v -0.3 0 -1
v -0.2 0 -1
v 0.3 0 -1
v 0.4 0 -1
v -0.3 0.4 0.1
v -0.2 0.4 0.1
v 0.3 0.4 0.1
v 0.4 0.4 0.1
v -0.3 0.4 -0.9
v -0.2 0.4 -0.9
v 0.3 0.4 -0.9
v 0.4 0.4 -0.9
v -0.3 1.2 1.2
v -0.2 1.2 1.2
v 0.3 1.2 1.2
v 0.4 1.2 1.2
v -0.3 1.2 0.9
v -0.2 1.2 0.9
v 0.3 1.2 0.9
v 0.4 1.2 0.9
v -0.3 1.2 0.7
v -0.2 1.2 0.7
v 0.3 1.2 0.7
v 0.4 1.2 0.7
v -0.3 1.2 -0.3
v -0.2 1.2 -0.3
v 0.3 1.2 -0.3
v 0.4 1.2 -0.3
v -0.3 1.2 -0.5
v -0.2 1.2 -0.5
v 0.3 1.2 -0.5
v 0.4 1.2 -0.5
v -0.3 1.2 -0.7
v -0.2 1.2 -0.7
v 0.3 1.2 -0.7
v 0.4 1.2 -0.7
v -0.3 1.6 1.1
v -0.2 1.6 1.1
v 0.3 1.6 1.1
v 0.4 1.6 1.1
v -0.3 1.6 -0.6
v -0.2 1.6 -0.6
v 0.3 1.6 -0.6
v 0.4 1.6 -0.6
v -0.2 1.9 0
v -0.1 1.9 0
v 0.2 1.9 0
v 0.3 1.9 0
v -0.2 1.9 -0.3
v -0.1 1.9 -0.3
v 0.2 1.9 -0.3
v 0.3 1.9 -0.3
v -0.2 1.9 -0.5
v -0.1 1.9 -0.5
v 0.2 1.9 -0.5
v 0.3 1.9 -0.5
v -0.2 1.9 -0.7
v -0.1 1.9 -0.7
v 0.2 1.9 -0.7
v 0.3 1.9 -0.7
v -0.2 2.6 -0.0999999
v -0.1 2.6 -0.0999999
v 0.2 2.6 -0.0999999
v 0.3 2.6 -0.0999999
v -0.2 2.6 -0.6
v -0.1 2.6 -0.6
v 0.2 2.6 -0.6
v 0.3 2.6 -0.6
v -0.3 3.2 -0.2
v -0.2 3.2 -0.2
v 0.3 3.2 -0.2
v 0.4 3.2 -0.2
v -0.2 3.2 -0.3
v 0.3 3.2 -0.3
v -0.2 3.2 -0.5
v 0.3 3.2 -0.5
v -0.3 3.2 -1
v -0.2 3.2 -1
v 0.3 3.2 -1
v 0.4 3.2 -1
v -0.3 3.3 0.7
v 0.4 3.3 0.7
v -0.3 3.3 -0.2
v -0.2 3.3 -0.2
v 0.3 3.3 -0.2
v 0.4 3.3 -0.2
v -0.3 3.6 -0.3
v -0.2 3.6 -0.3
v 0.3 3.6 -0.3
v 0.4 3.6 -0.3
v -0.3 3.6 -0.9
v -0.2 3.6 -0.9
v 0.3 3.6 -0.9
v 0.4 3.6 -0.9
v -0.3 0.1 0.7
v -0.2 0.1 0.7
v 0.3 0.1 0.7
v 0.4 0.1 0.7
v -0.3 0.1 0.2
v -0.2 0.1 0.2
v 0.3 0.1 0.2
v 0.4 0.1 0.2
v -0.3 0.1 0.1
v -0.2 0.1 0.1
v 0.3 0.1 0.1
v 0.4 0.1 0.1
v -0.3 0.1 -0.9
v -0.2 0.1 -0.9
v 0.3 0.1 -0.9
v 0.4 0.1 -0.9
v -0.3 0.5 0.2
v -0.2 0.5 0.2
v 0.3 0.5 0.2
v 0.4 0.5 0.2
v -0.3 0.5 -0.3
v -0.2 0.5 -0.3
v 0.3 0.5 -0.3
v 0.4 0.5 -0.3
v -0.3 0.5 -0.5
v -0.2 0.5 -0.5
v 0.3 0.5 -0.5
v 0.4 0.5 -0.5
v -0.3 0.5 -1
v -0.2 0.5 -1
v 0.3 0.5 -1
v 0.4 0.5 -1
v -0.3 1.3 1.1
v -0.2 1.3 1.1
v 0.3 1.3 1.1
v 0.4 1.3 1.1
v -0.3 1.3 -0.6
v -0.2 1.3 -0.6
v 0.3 1.3 -0.6
v 0.4 1.3 -0.6
v -0.3 1.7 1.2
v -0.2 1.7 1.2
v 0.3 1.7 1.2
v 0.4 1.7 1.2
v -0.3 1.7 0.9
v -0.2 1.7 0.9
v 0.3 1.7 0.9
v 0.4 1.7 0.9
v -0.3 1.7 0.7
v -0.2 1.7 0.7
v 0.3 1.7 0.7
v 0.4 1.7 0.7
v -0.3 1.7 -0.3
v -0.2 1.7 -0.3
v 0.3 1.7 -0.3
v 0.4 1.7 -0.3
v -0.3 1.7 -0.5
v -0.2 1.7 -0.5
v 0.3 1.7 -0.5
v 0.4 1.7 -0.5
v -0.3 1.7 -0.7
v -0.2 1.7 -0.7
v 0.3 1.7 -0.7
v 0.4 1.7 -0.7
v -0.3 1.9 -0.3
v -0.2 1.9 -0.3
v 0.3 1.9 -0.3
v 0.4 1.9 -0.3
v -0.3 1.9 -0.5
v -0.2 1.9 -0.5
v 0.3 1.9 -0.5
v 0.4 1.9 -0.5
v -0.2 2 -0.0999999
v -0.1 2 -0.0999999
v 0.2 2 -0.0999999
v 0.3 2 -0.0999999
v -0.2 2 -0.6
v -0.1 2 -0.6
v 0.2 2 -0.6
v 0.3 2 -0.6
v -0.2 2.7 0
v -0.1 2.7 0
v 0.2 2.7 0
v 0.3 2.7 0
v -0.2 2.7 -0.3
v -0.1 2.7 -0.3
v 0.2 2.7 -0.3
v 0.3 2.7 -0.3
v -0.2 2.7 -0.5
v -0.1 2.7 -0.5
v 0.2 2.7 -0.5
v 0.3 2.7 -0.5
v -0.2 2.7 -0.7
v -0.1 2.7 -0.7
v 0.2 2.7 -0.7
v 0.3 2.7 -0.7
v -0.3 3.3 -0.3
v -0.2 3.3 -0.3
v 0.3 3.3 -0.3
v 0.4 3.3 -0.3
v -0.3 3.3 -0.9
v -0.2 3.3 -0.9
v 0.3 3.3 -0.9
v 0.4 3.3 -0.9
v -0.3 3.4 0.9
v 0.4 3.4 0.9
v -0.3 3.4 -0.2
v -0.2 3.4 -0.2
v 0.3 3.4 -0.2
v 0.4 3.4 -0.2
v -0.3 3.7 -0.2
v -0.2 3.7 -0.2
v 0.3 3.7 -0.2
v 0.4 3.7 -0.2
v -0.3 3.7 -1
v -0.2 3.7 -1
v 0.3 3.7 -1
v 0.4 3.7 -1

# faces
f 3/2/1 2/2/1 1/2/1
f 4/2/1 2/2/1 3/2/1
f 5/2/1 2/2/1 4/2/1
f 6/2/1 2/2/1 5/2/1
f 7/2/1 2/2/1 6/2/1
f 8/2/1 6/2/1 5/2/1
f 9/2/1 2/2/1 7/2/1
f 10/2/1 8/2/1 5/2/1
f 10/2/1 9/2/1 8/2/1
f 11/2/1 9/2/1 10/2/1
f 12/2/1 9/2/1 11/2/1
f 13/2/1 2/2/1 9/2/1
f 13/2/1 9/2/1 12/2/1
f 15/3/1 4/3/1 3/3/1
f 16/3/1 4/3/1 15/3/1
f 17/3/1 12/3/1 11/3/1
f 18/3/1 12/3/1 17/3/1
f 20/2/1 16/2/1 15/2/1
f 20/2/1 19/2/1 18/2/1
f 20/2/1 18/2/1 17/2/1
f 20/2/1 17/2/1 16/2/1
f 20/2/1 15/2/1 14/2/1
f 21/2/1 19/2/1 20/2/1
f 22/2/1 20/2/1 14/2/1
f 23/2/1 19/2/1 21/2/1
f 24/2/1 22/2/1 14/2/1
f 24/2/1 23/2/1 22/2/1
f 25/2/1 23/2/1 24/2/1
f 26/2/1 23/2/1 25/2/1
f 27/2/1 23/2/1 26/2/1
f 28/2/1 23/2/1 27/2/1
f 29/2/1 19/2/1 23/2/1
f 29/2/1 23/2/1 28/2/1
f 30/3/1 28/3/1 27/3/1
f 31/3/1 28/3/1 30/3/1
f 34/3/1 26/3/1 25/3/1
f 35/2/1 33/2/1 32/2/1
f 36/2/1 33/2/1 35/2/1
f 37/2/1 33/2/1 36/2/1
f 38/3/1 34/3/1 25/3/1
f 38/3/1 35/3/1 34/3/1
f 39/2/1 36/2/1 35/2/1
f 39/3/1 35/3/1 38/3/1
f 40/2/1 36/2/1 39/2/1
f 41/2/1 33/2/1 37/2/1
f 42/2/1 40/2/1 39/2/1
f 42/2/1 41/2/1 40/2/1
f 43/2/1 33/2/1 41/2/1
f 43/2/1 41/2/1 42/2/1
f 48/2/1 45/2/1 44/2/1
f 48/2/1 47/2/1 46/2/1
f 48/2/1 46/2/1 45/2/1
f 49/2/1 47/2/1 48/2/1
f 50/2/1 48/2/1 44/2/1
f 51/2/1 47/2/1 49/2/1
f 52/2/1 50/2/1 44/2/1
f 52/2/1 51/2/1 50/2/1
f 53/2/1 51/2/1 52/2/1
f 54/2/1 51/2/1 53/2/1
f 55/2/1 47/2/1 51/2/1
f 55/2/1 51/2/1 54/2/1
f 56/3/1 54/3/1 53/3/1
f 57/3/1 54/3/1 56/3/1
f 58/2/2 59/2/2 62/2/2
f 60/2/2 61/2/2 62/2/2
f 59/2/2 60/2/2 62/2/2
f 62/2/2 61/2/2 63/2/2
f 58/2/2 62/2/2 64/2/2
f 63/2/2 61/2/2 65/2/2
f 58/2/2 64/2/2 66/2/2
f 64/2/2 65/2/2 66/2/2
f 66/2/2 65/2/2 67/2/2
f 67/2/2 65/2/2 68/2/2
f 65/2/2 61/2/2 69/2/2
f 68/2/2 65/2/2 69/2/2
f 67/3/2 68/3/2 70/3/2
f 70/3/2 68/3/2 71/3/2
f 72/2/2 73/2/2 74/2/2
f 74/2/2 73/2/2 75/2/2
f 75/2/2 73/2/2 76/2/2
f 76/2/2 73/2/2 77/2/2
f 77/2/2 73/2/2 78/2/2
f 76/2/2 77/2/2 79/2/2
f 78/2/2 73/2/2 80/2/2
f 76/2/2 79/2/2 81/2/2
f 79/2/2 80/2/2 81/2/2
f 81/2/2 80/2/2 82/2/2
f 82/2/2 80/2/2 83/2/2
f 80/2/2 73/2/2 84/2/2
f 83/2/2 80/2/2 84/2/2
f 74/3/2 75/3/2 86/3/2
f 86/3/2 75/3/2 87/3/2
f 82/3/2 83/3/2 88/3/2
f 88/3/2 83/3/2 89/3/2
f 86/2/2 87/2/2 91/2/2
f 89/2/2 90/2/2 91/2/2
f 88/2/2 89/2/2 91/2/2
f 87/2/2 88/2/2 91/2/2
f 85/2/2 86/2/2 91/2/2
f 91/2/2 90/2/2 92/2/2
f 85/2/2 91/2/2 93/2/2
f 92/2/2 90/2/2 94/2/2
f 85/2/2 93/2/2 95/2/2
f 93/2/2 94/2/2 95/2/2
f 95/2/2 94/2/2 96/2/2
f 96/2/2 94/2/2 97/2/2
f 97/2/2 94/2/2 98/2/2
f 98/2/2 94/2/2 99/2/2
f 94/2/2 90/2/2 100/2/2
f 99/2/2 94/2/2 100/2/2
f 98/3/2 99/3/2 101/3/2
f 101/3/2 99/3/2 102/3/2
f 96/3/2 97/3/2 105/3/2
f 103/2/2 104/2/2 106/2/2
f 106/2/2 104/2/2 107/2/2
f 107/2/2 104/2/2 108/2/2
f 96/3/2 105/3/2 109/3/2
f 105/3/2 106/3/2 109/3/2
f 106/2/2 107/2/2 110/2/2
f 109/3/2 106/3/2 110/3/2
f 110/2/2 107/2/2 111/2/2
f 108/2/2 104/2/2 112/2/2
f 110/2/2 111/2/2 113/2/2
f 111/2/2 112/2/2 113/2/2
f 112/2/2 104/2/2 114/2/2
f 113/2/2 112/2/2 114/2/2
f 117/2/3 116/2/3 115/2/3
f 118/2/3 116/2/3 117/2/3
f 119/1/3 118/1/3 117/1/3
f 120/1/3 118/1/3 119/1/3
f 121/2/3 120/2/3 119/2/3
f 122/2/3 120/2/3 121/2/3
f 128/2/3 124/2/3 123/2/3
f 129/3/3 125/3/3 124/3/3
f 129/2/3 124/2/3 128/2/3
f 130/3/3 125/3/3 129/3/3
f 131/3/3 127/3/3 126/3/3
f 132/1/3 129/1/3 128/1/3
f 133/3/3 130/3/3 129/3/3
f 133/1/3 129/1/3 132/1/3
f 134/3/3 130/3/3 133/3/3
f 135/3/3 127/3/3 131/3/3
f 136/2/3 133/2/3 132/2/3
f 137/3/3 134/3/3 133/3/3
f 137/2/3 133/2/3 136/2/3
f 138/3/3 134/3/3 137/3/3
f 139/3/3 127/3/3 135/3/3
f 140/3/3 127/3/3 139/3/3
f 143/2/3 142/2/3 141/2/3
f 144/2/3 142/2/3 143/2/3
f 145/1/3 144/1/3 143/1/3
f 146/1/3 144/1/3 145/1/3
f 147/2/3 146/2/3 145/2/3
f 148/2/3 146/2/3 147/2/3
f 151/2/3 150/2/3 149/2/3
f 152/2/3 150/2/3 151/2/3
f 153/1/3 152/1/3 151/1/3
f 154/1/3 152/1/3 153/1/3
f 155/2/3 154/2/3 153/2/3
f 156/2/3 154/2/3 155/2/3
f 161/2/3 158/2/3 157/2/3
f 162/2/3 158/2/3 161/2/3
f 163/2/3 160/2/3 159/2/3
f 164/2/3 160/2/3 163/2/3
f 165/1/3 162/1/3 161/1/3
f 166/1/3 162/1/3 165/1/3
f 167/1/3 164/1/3 163/1/3
f 168/1/3 164/1/3 167/1/3
f 169/2/3 166/2/3 165/2/3
f 170/2/3 166/2/3 169/2/3
f 171/2/3 168/2/3 167/2/3
f 172/2/3 168/2/3 171/2/3
f 177/3/3 174/3/3 173/3/3
f 178/3/3 174/3/3 177/3/3
f 179/3/3 176/3/3 175/3/3
f 180/3/3 176/3/3 179/3/3
f 183/3/3 180/3/3 179/3/3
f 184/3/3 182/3/3 181/3/3
f 185/3/3 183/3/3 179/3/3
f 186/3/3 182/3/3 184/3/3
f 187/3/3 178/3/3 177/3/3
f 188/3/3 178/3/3 187/3/3
f 189/3/3 185/3/3 179/3/3
f 190/3/3 185/3/3 189/3/3
f 191/3/3 182/3/3 186/3/3
f 192/3/3 182/3/3 191/3/3
f 193/3/3 188/3/3 187/3/3
f 194/3/3 188/3/3 193/3/3
f 195/3/3 190/3/3 189/3/3
f 196/3/3 190/3/3 195/3/3
f 199/2/3 198/2/3 197/2/3
f 200/2/3 198/2/3 199/2/3
f 203/2/3 202/2/3 201/2/3
f 204/2/3 202/2/3 203/2/3
f 205/1/3 204/1/3 203/1/3
f 206/1/3 204/1/3 205/1/3
f 207/1/3 200/1/3 199/1/3
f 208/1/3 200/1/3 207/1/3
f 209/2/3 206/2/3 205/2/3
f 210/2/3 206/2/3 209/2/3
f 211/2/3 208/2/3 207/2/3
f 212/2/3 208/2/3 211/2/3
f 217/2/3 214/2/3 213/2/3
f 218/2/3 214/2/3 217/2/3
f 219/2/3 216/2/3 215/2/3
f 220/2/3 216/2/3 219/2/3
f 221/1/3 218/1/3 217/1/3
f 222/1/3 218/1/3 221/1/3
f 223/1/3 220/1/3 219/1/3
f 224/1/3 220/1/3 223/1/3
f 225/2/3 222/2/3 221/2/3
f 226/2/3 222/2/3 225/2/3
f 227/2/3 224/2/3 223/2/3
f 228/2/3 224/2/3 227/2/3
f 229/2/4 230/2/4 231/2/4
f 231/2/4 230/2/4 232/2/4
f 231/1/4 232/1/4 233/1/4
f 233/1/4 232/1/4 234/1/4
f 233/2/4 234/2/4 235/2/4
f 235/2/4 234/2/4 236/2/4
f 237/3/4 238/3/4 241/3/4
f 241/3/4 238/3/4 242/3/4
f 239/3/4 240/3/4 243/3/4
f 241/3/4 242/3/4 244/3/4
f 244/3/4 242/3/4 245/3/4
f 243/3/4 240/3/4 246/3/4
f 244/3/4 245/3/4 247/3/4
f 247/3/4 245/3/4 248/3/4
f 246/3/4 240/3/4 249/3/4
f 249/3/4 240/3/4 250/3/4
f 251/2/4 252/2/4 253/2/4
f 253/2/4 252/2/4 254/2/4
f 253/1/4 254/1/4 255/1/4
f 255/1/4 254/1/4 256/1/4
f 255/2/4 256/2/4 257/2/4
f 257/2/4 256/2/4 258/2/4
f 259/2/4 260/2/4 261/2/4
f 261/2/4 260/2/4 262/2/4
f 261/1/4 262/1/4 263/1/4
f 263/1/4 262/1/4 264/1/4
f 263/2/4 264/2/4 265/2/4
f 265/2/4 264/2/4 266/2/4
f 267/2/4 268/2/4 269/2/4
f 269/2/4 268/2/4 270/2/4
f 269/1/4 270/1/4 271/1/4
f 271/1/4 270/1/4 272/1/4
f 271/2/4 272/2/4 273/2/4
f 273/2/4 272/2/4 274/2/4
f 275/3/4 276/3/4 279/3/4
f 279/3/4 276/3/4 280/3/4
f 277/3/4 278/3/4 281/3/4
f 281/3/4 278/3/4 282/3/4
f 281/3/4 282/3/4 285/3/4
f 283/3/4 284/3/4 286/3/4
f 281/3/4 285/3/4 287/3/4
f 286/3/4 284/3/4 288/3/4
f 279/3/4 280/3/4 289/3/4
f 289/3/4 280/3/4 290/3/4
f 281/3/4 287/3/4 291/3/4
f 291/3/4 287/3/4 292/3/4
f 288/3/4 284/3/4 293/3/4
f 293/3/4 284/3/4 294/3/4
f 289/3/4 290/3/4 295/3/4
f 295/3/4 290/3/4 296/3/4
f 291/3/4 292/3/4 297/3/4
f 297/3/4 292/3/4 298/3/4
f 299/2/4 300/2/4 301/2/4
f 301/2/4 300/2/4 302/2/4
f 303/2/4 304/2/4 305/2/4
f 305/2/4 304/2/4 306/2/4
f 305/1/4 306/1/4 307/1/4
f 307/1/4 306/1/4 308/1/4
f 301/1/4 302/1/4 309/1/4
f 309/1/4 302/1/4 310/1/4
f 307/2/4 308/2/4 311/2/4
f 311/2/4 308/2/4 312/2/4
f 309/2/4 310/2/4 313/2/4
f 313/2/4 310/2/4 314/2/4
f 315/2/4 316/2/4 319/2/4
f 319/2/4 316/2/4 320/2/4
f 317/2/4 318/2/4 321/2/4
f 321/2/4 318/2/4 322/2/4
f 319/1/4 320/1/4 323/1/4
f 323/1/4 320/1/4 324/1/4
f 321/1/4 322/1/4 325/1/4
f 325/1/4 322/1/4 326/1/4
f 323/2/4 324/2/4 327/2/4
f 327/2/4 324/2/4 328/2/4
f 325/2/4 326/2/4 329/2/4
f 329/2/4 326/2/4 330/2/4
f 335/2/5 332/2/5 331/2/5
f 336/1/5 333/1/5 332/1/5
f 336/2/5 332/2/5 335/2/5
f 337/2/5 334/2/5 333/2/5
f 337/1/5 333/1/5 336/1/5
f 338/2/5 334/2/5 337/2/5
f 343/2/5 340/2/5 339/2/5
f 344/1/5 341/1/5 340/1/5
f 344/2/5 340/2/5 343/2/5
f 345/2/5 342/2/5 341/2/5
f 345/1/5 341/1/5 344/1/5
f 346/2/5 342/2/5 345/2/5
f 351/2/5 348/2/5 347/2/5
f 352/1/5 349/1/5 348/1/5
f 352/2/5 348/2/5 351/2/5
f 353/2/5 350/2/5 349/2/5
f 353/1/5 349/1/5 352/1/5
f 354/2/5 350/2/5 353/2/5
f 359/2/5 356/2/5 355/2/5
f 360/1/5 357/1/5 356/1/5
f 360/2/5 356/2/5 359/2/5
f 361/2/5 358/2/5 357/2/5
f 361/1/5 357/1/5 360/1/5
f 362/2/5 358/2/5 361/2/5
f 367/2/5 364/2/5 363/2/5
f 368/1/5 365/1/5 364/1/5
f 368/2/5 364/2/5 367/2/5
f 369/2/5 366/2/5 365/2/5
f 369/1/5 365/1/5 368/1/5
f 370/2/5 366/2/5 369/2/5
f 375/2/5 372/2/5 371/2/5
f 376/1/5 373/1/5 372/1/5
f 376/2/5 372/2/5 375/2/5
f 377/2/5 374/2/5 373/2/5
f 377/1/5 373/1/5 376/1/5
f 378/2/5 374/2/5 377/2/5
f 383/2/5 380/2/5 379/2/5
f 384/1/5 381/1/5 380/1/5
f 384/2/5 380/2/5 383/2/5
f 385/2/5 382/2/5 381/2/5
f 385/1/5 381/1/5 384/1/5
f 386/2/5 382/2/5 385/2/5
f 391/2/5 388/2/5 387/2/5
f 392/1/5 389/1/5 388/1/5
f 392/2/5 388/2/5 391/2/5
f 393/2/5 390/2/5 389/2/5
f 393/1/5 389/1/5 392/1/5
f 394/2/5 390/2/5 393/2/5
f 399/2/5 396/2/5 395/2/5
f 400/1/5 397/1/5 396/1/5
f 400/2/5 396/2/5 399/2/5
f 401/2/5 398/2/5 397/2/5
f 401/1/5 397/1/5 400/1/5
f 402/2/5 398/2/5 401/2/5
f 407/2/5 404/2/5 403/2/5
f 407/1/5 405/1/5 404/1/5
f 408/2/5 406/2/5 405/2/5
f 408/1/5 405/1/5 407/1/5
f 409/2/5 407/2/5 403/2/5
f 410/2/5 406/2/5 408/2/5
f 411/2/5 409/2/5 403/2/5
f 412/1/5 410/1/5 409/1/5
f 412/2/5 409/2/5 411/2/5
f 413/2/5 406/2/5 410/2/5
f 413/1/5 410/1/5 412/1/5
f 414/2/5 406/2/5 413/2/5
f 417/3/5 416/3/5 415/3/5
f 418/3/5 416/3/5 417/3/5
f 419/3/5 416/3/5 418/3/5
f 420/3/5 416/3/5 419/3/5
f 425/2/5 422/2/5 421/2/5
f 426/1/5 423/1/5 422/1/5
f 426/2/5 422/2/5 425/2/5
f 427/2/5 424/2/5 423/2/5
f 427/1/5 423/1/5 426/1/5
f 428/2/5 424/2/5 427/2/5
f 429/2/6 430/2/6 433/2/6
f 430/1/6 431/1/6 434/1/6
f 433/2/6 430/2/6 434/2/6
f 431/2/6 432/2/6 435/2/6
f 434/1/6 431/1/6 435/1/6
f 435/2/6 432/2/6 436/2/6
f 437/2/6 438/2/6 441/2/6
f 438/1/6 439/1/6 442/1/6
f 441/2/6 438/2/6 442/2/6
f 439/2/6 440/2/6 443/2/6
f 442/1/6 439/1/6 443/1/6
f 443/2/6 440/2/6 444/2/6
f 445/2/6 446/2/6 449/2/6
f 446/1/6 447/1/6 450/1/6
f 449/2/6 446/2/6 450/2/6
f 447/2/6 448/2/6 451/2/6
f 450/1/6 447/1/6 451/1/6
f 451/2/6 448/2/6 452/2/6
f 453/2/6 454/2/6 457/2/6
f 454/1/6 455/1/6 458/1/6
f 457/2/6 454/2/6 458/2/6
f 455/2/6 456/2/6 459/2/6
f 458/1/6 455/1/6 459/1/6
f 459/2/6 456/2/6 460/2/6
f 461/2/6 462/2/6 465/2/6
f 462/1/6 463/1/6 466/1/6
f 465/2/6 462/2/6 466/2/6
f 463/2/6 464/2/6 467/2/6
f 466/1/6 463/1/6 467/1/6
f 467/2/6 464/2/6 468/2/6
f 469/2/6 470/2/6 473/2/6
f 470/1/6 471/1/6 474/1/6
f 473/2/6 470/2/6 474/2/6
f 471/2/6 472/2/6 475/2/6
f 474/1/6 471/1/6 475/1/6
f 475/2/6 472/2/6 476/2/6
f 477/2/6 478/2/6 481/2/6
f 478/1/6 479/1/6 482/1/6
f 481/2/6 478/2/6 482/2/6
f 479/2/6 480/2/6 483/2/6
f 482/1/6 479/1/6 483/1/6
f 483/2/6 480/2/6 484/2/6
f 485/2/6 486/2/6 489/2/6
f 486/1/6 487/1/6 490/1/6
f 489/2/6 486/2/6 490/2/6
f 487/2/6 488/2/6 491/2/6
f 490/1/6 487/1/6 491/1/6
f 491/2/6 488/2/6 492/2/6
f 493/3/6 494/3/6 497/3/6
f 497/3/6 494/3/6 498/3/6
f 495/3/6 496/3/6 499/3/6
f 499/3/6 496/3/6 500/3/6
f 501/2/6 502/2/6 505/2/6
f 502/1/6 503/1/6 506/1/6
f 505/2/6 502/2/6 506/2/6
f 503/2/6 504/2/6 507/2/6
f 506/1/6 503/1/6 507/1/6
f 507/2/6 504/2/6 508/2/6
f 509/2/6 510/2/6 513/2/6
f 510/1/6 511/1/6 514/1/6
f 513/2/6 510/2/6 514/2/6
f 511/2/6 512/2/6 515/2/6
f 514/1/6 511/1/6 515/1/6
f 515/2/6 512/2/6 516/2/6
f 517/2/6 518/2/6 521/2/6
f 518/1/6 519/1/6 522/1/6
f 521/2/6 518/2/6 522/2/6
f 519/2/6 520/2/6 523/2/6
f 522/1/6 519/1/6 523/1/6
f 523/2/6 520/2/6 524/2/6
f 525/2/6 526/2/6 529/2/6
f 526/1/6 527/1/6 530/1/6
f 529/2/6 526/2/6 530/2/6
f 527/2/6 528/2/6 531/2/6
f 530/1/6 527/1/6 531/1/6
f 531/2/6 528/2/6 532/2/6
f 533/3/6 534/3/6 535/3/6
f 535/3/6 534/3/6 536/3/6
f 536/3/6 534/3/6 537/3/6
f 537/3/6 534/3/6 538/3/6
f 539/2/6 540/2/6 543/2/6
f 540/1/6 541/1/6 544/1/6
f 543/2/6 540/2/6 544/2/6
f 541/2/6 542/2/6 545/2/6
f 544/1/6 541/1/6 545/1/6
f 545/2/6 542/2/6 546/2/6
