# MagicaVoxel @ Ephtracy

# group
o 

# material
mtllib prop_pan.mtl
usemtl palette

# normals
vn -1 0 0
vn 1 0 0
vn 0 0 1
vn 0 0 -1
vn 0 -1 0
vn 0 1 0

# texcoords
vt 0.787109 0.5
vt 0.990234 0.5
vt 0.994141 0.5

# verts
v -0.3 0 0
v -0.3 0 -0.3
v -0.3 0.2 0
v -0.3 0.2 -0.3
v -0.2 0 0.1
v -0.2 0 0
v -0.2 0 -0.3
v -0.2 0 -0.4
v -0.2 0.2 0.1
v -0.2 0.2 0
v -0.2 0.2 -0.3
v -0.2 0.2 -0.4
v -0.1 0 0.2
v -0.1 0 0.1
v -0.1 0 -0.4
v -0.1 0 -0.5
v -0.1 0.2 0.2
v -0.1 0.2 0.1
v -0.1 0.2 -0.4
v -0.1 0.2 -0.5
v 0 0.1 0.4
v 0 0.1 0.2
v 0 0.2 0.7
v 0 0.2 0.4
v 0 0.2 0.3
v 0 0.2 0.2
v 0 0.3 0.7
v 0 0.3 0.3
v 0.2 0.1 0.1
v 0.2 0.1 0
v 0.2 0.1 -0.3
v 0.2 0.1 -0.4
v 0.2 0.2 0.1
v 0.2 0.2 0
v 0.2 0.2 -0.3
v 0.2 0.2 -0.4
v 0.3 0.1 0
v 0.3 0.1 -0.3
v 0.3 0.2 0
v 0.3 0.2 -0.3
v -0.2 0.1 0
v -0.2 0.1 -0.3
v -0.2 0.2 0
v -0.2 0.2 -0.3
v -0.1 0.1 0.1
v -0.1 0.1 0
v -0.1 0.1 -0.3
v -0.1 0.1 -0.4
v -0.1 0.2 0.1
v -0.1 0.2 0
v -0.1 0.2 -0.3
v -0.1 0.2 -0.4
v 0.1 0.1 0.4
v 0.1 0.1 0.2
v 0.1 0.2 0.7
v 0.1 0.2 0.4
v 0.1 0.2 0.3
v 0.1 0.2 0.2
v 0.1 0.3 0.7
v 0.1 0.3 0.3
v 0.2 0 0.2
v 0.2 0 0.1
v 0.2 0 -0.4
v 0.2 0 -0.5
v 0.2 0.2 0.2
v 0.2 0.2 0.1
v 0.2 0.2 -0.4
v 0.2 0.2 -0.5
v 0.3 0 0.1
v 0.3 0 0
v 0.3 0 -0.3
v 0.3 0 -0.4
v 0.3 0.2 0.1
v 0.3 0.2 0
v 0.3 0.2 -0.3
v 0.3 0.2 -0.4
v 0.4 0 0
v 0.4 0 -0.3
v 0.4 0.2 0
v 0.4 0.2 -0.3
v 0 0.2 0.7
v 0 0.3 0.7
v 0.1 0.2 0.7
v 0.1 0.3 0.7
v 0 0.1 0.4
v 0 0.2 0.4
v 0.1 0.1 0.4
v 0.1 0.2 0.4
v -0.1 0 0.2
v -0.1 0.2 0.2
v 0 0.1 0.2
v 0 0.2 0.2
v 0.1 0.1 0.2
v 0.1 0.2 0.2
v 0.2 0 0.2
v 0.2 0.2 0.2
v -0.2 0 0.1
v -0.2 0.2 0.1
v -0.1 0 0.1
v -0.1 0.2 0.1
v 0.2 0 0.1
v 0.2 0.2 0.1
v 0.3 0 0.1
v 0.3 0.2 0.1
v -0.3 0 0
v -0.3 0.2 0
v -0.2 0 0
v -0.2 0.2 0
v 0.3 0 0
v 0.3 0.2 0
v 0.4 0 0
v 0.4 0.2 0
v -0.2 0.1 -0.3
v -0.2 0.2 -0.3
v -0.1 0.1 -0.3
v -0.1 0.2 -0.3
v 0.2 0.1 -0.3
v 0.2 0.2 -0.3
v 0.3 0.1 -0.3
v 0.3 0.2 -0.3
v -0.1 0.1 -0.4
v -0.1 0.2 -0.4
v 0.2 0.1 -0.4
v 0.2 0.2 -0.4
v 0 0.2 0.3
v 0 0.3 0.3
v 0.1 0.2 0.3
v 0.1 0.3 0.3
v -0.1 0.1 0.1
v -0.1 0.2 0.1
v 0 0.1 0.1
v 0 0.2 0.1
v 0.1 0.1 0.1
v 0.1 0.2 0.1
v 0.2 0.1 0.1
v 0.2 0.2 0.1
v -0.2 0.1 0
v -0.2 0.2 0
v -0.1 0.1 0
v -0.1 0.2 0
v 0.2 0.1 0
v 0.2 0.2 0
v 0.3 0.1 0
v 0.3 0.2 0
v -0.3 0 -0.3
v -0.3 0.2 -0.3
v -0.2 0 -0.3
v -0.2 0.2 -0.3
v 0.3 0 -0.3
v 0.3 0.2 -0.3
v 0.4 0 -0.3
v 0.4 0.2 -0.3
v -0.2 0 -0.4
v -0.2 0.2 -0.4
v -0.1 0 -0.4
v -0.1 0.2 -0.4
v 0.2 0 -0.4
v 0.2 0.2 -0.4
v 0.3 0 -0.4
v 0.3 0.2 -0.4
v -0.1 0 -0.5
v -0.1 0.2 -0.5
v 0.2 0 -0.5
v 0.2 0.2 -0.5
v -0.1 0 0.2
v 0.2 0 0.2
v -0.2 0 0.1
v -0.1 0 0.1
v 0.2 0 0.1
v 0.3 0 0.1
v -0.3 0 0
v -0.2 0 0
v -0.1 0 0
v 0.2 0 0
v 0.3 0 0
v 0.4 0 0
v -0.3 0 -0.3
v -0.2 0 -0.3
v -0.1 0 -0.3
v 0.2 0 -0.3
v 0.3 0 -0.3
v 0.4 0 -0.3
v -0.2 0 -0.4
v -0.1 0 -0.4
v 0.2 0 -0.4
v 0.3 0 -0.4
v -0.1 0 -0.5
v 0.2 0 -0.5
v 0 0.1 0.4
v 0.1 0.1 0.4
v 0 0.1 0.2
v 0.1 0.1 0.2
v 0 0.2 0.7
v 0.1 0.2 0.7
v 0 0.2 0.4
v 0.1 0.2 0.4
v -0.1 0.1 0.1
v 0 0.1 0.1
v 0.1 0.1 0.1
v 0.2 0.1 0.1
v -0.2 0.1 0
v -0.1 0.1 0
v 0.2 0.1 0
v 0.3 0.1 0
v -0.2 0.1 -0.3
v -0.1 0.1 -0.3
v 0.2 0.1 -0.3
v 0.3 0.1 -0.3
v -0.1 0.1 -0.4
v 0.2 0.1 -0.4
v 0 0.2 0.3
v 0.1 0.2 0.3
v -0.1 0.2 0.2
v 0 0.2 0.2
v 0.1 0.2 0.2
v 0.2 0.2 0.2
v -0.2 0.2 0.1
v -0.1 0.2 0.1
v 0 0.2 0.1
v 0.1 0.2 0.1
v 0.2 0.2 0.1
v 0.3 0.2 0.1
v -0.3 0.2 0
v -0.2 0.2 0
v -0.1 0.2 0
v 0.2 0.2 0
v 0.3 0.2 0
v 0.4 0.2 0
v -0.3 0.2 -0.3
v -0.2 0.2 -0.3
v -0.1 0.2 -0.3
v 0.2 0.2 -0.3
v 0.3 0.2 -0.3
v 0.4 0.2 -0.3
v -0.2 0.2 -0.4
v -0.1 0.2 -0.4
v 0.2 0.2 -0.4
v 0.3 0.2 -0.4
v -0.1 0.2 -0.5
v 0.2 0.2 -0.5
v 0 0.3 0.7
v 0.1 0.3 0.7
v 0 0.3 0.3
v 0.1 0.3 0.3

# faces
f 3/2/1 2/2/1 1/2/1
f 4/2/1 2/2/1 3/2/1
f 9/2/1 6/2/1 5/2/1
f 10/2/1 6/2/1 9/2/1
f 11/2/1 8/2/1 7/2/1
f 12/2/1 8/2/1 11/2/1
f 17/2/1 14/2/1 13/2/1
f 18/2/1 14/2/1 17/2/1
f 19/2/1 16/2/1 15/2/1
f 20/2/1 16/2/1 19/2/1
f 24/3/1 22/3/1 21/3/1
f 25/3/1 22/3/1 24/3/1
f 26/3/1 22/3/1 25/3/1
f 27/3/1 24/3/1 23/3/1
f 27/3/1 25/3/1 24/3/1
f 28/3/1 25/3/1 27/3/1
f 33/2/1 30/2/1 29/2/1
f 34/2/1 30/2/1 33/2/1
f 35/2/1 32/2/1 31/2/1
f 36/2/1 32/2/1 35/2/1
f 39/2/1 38/2/1 37/2/1
f 40/2/1 38/2/1 39/2/1
f 41/2/2 42/2/2 43/2/2
f 43/2/2 42/2/2 44/2/2
f 45/2/2 46/2/2 49/2/2
f 49/2/2 46/2/2 50/2/2
f 47/2/2 48/2/2 51/2/2
f 51/2/2 48/2/2 52/2/2
f 53/3/2 54/3/2 56/3/2
f 56/3/2 54/3/2 57/3/2
f 57/3/2 54/3/2 58/3/2
f 55/3/2 56/3/2 59/3/2
f 56/3/2 57/3/2 59/3/2
f 59/3/2 57/3/2 60/3/2
f 61/2/2 62/2/2 65/2/2
f 65/2/2 62/2/2 66/2/2
f 63/2/2 64/2/2 67/2/2
f 67/2/2 64/2/2 68/2/2
f 69/2/2 70/2/2 73/2/2
f 73/2/2 70/2/2 74/2/2
f 71/2/2 72/2/2 75/2/2
f 75/2/2 72/2/2 76/2/2
f 77/2/2 78/2/2 79/2/2
f 79/2/2 78/2/2 80/2/2
f 83/3/3 82/3/3 81/3/3
f 84/3/3 82/3/3 83/3/3
f 87/3/3 86/3/3 85/3/3
f 88/3/3 86/3/3 87/3/3
f 91/2/3 90/2/3 89/2/3
f 92/2/3 90/2/3 91/2/3
f 93/2/3 91/2/3 89/2/3
f 95/2/3 93/2/3 89/2/3
f 95/2/3 94/2/3 93/2/3
f 96/2/3 94/2/3 95/2/3
f 99/2/3 98/2/3 97/2/3
f 100/2/3 98/2/3 99/2/3
f 103/2/3 102/2/3 101/2/3
f 104/2/3 102/2/3 103/2/3
f 107/2/3 106/2/3 105/2/3
f 108/2/3 106/2/3 107/2/3
f 111/2/3 110/2/3 109/2/3
f 112/2/3 110/2/3 111/2/3
f 115/2/3 114/2/3 113/2/3
f 116/2/3 114/2/3 115/2/3
f 119/2/3 118/2/3 117/2/3
f 120/2/3 118/2/3 119/2/3
f 123/2/3 122/2/3 121/2/3
f 124/2/3 122/2/3 123/2/3
f 125/3/4 126/3/4 127/3/4
f 127/3/4 126/3/4 128/3/4
f 129/2/4 130/2/4 131/2/4
f 131/2/4 130/2/4 132/2/4
f 131/3/4 132/3/4 133/3/4
f 133/3/4 132/3/4 134/3/4
f 133/2/4 134/2/4 135/2/4
f 135/2/4 134/2/4 136/2/4
f 137/2/4 138/2/4 139/2/4
f 139/2/4 138/2/4 140/2/4
f 141/2/4 142/2/4 143/2/4
f 143/2/4 142/2/4 144/2/4
f 145/2/4 146/2/4 147/2/4
f 147/2/4 146/2/4 148/2/4
f 149/2/4 150/2/4 151/2/4
f 151/2/4 150/2/4 152/2/4
f 153/2/4 154/2/4 155/2/4
f 155/2/4 154/2/4 156/2/4
f 157/2/4 158/2/4 159/2/4
f 159/2/4 158/2/4 160/2/4
f 161/2/4 162/2/4 163/2/4
f 163/2/4 162/2/4 164/2/4
f 168/2/5 166/2/5 165/2/5
f 169/2/5 166/2/5 168/2/5
f 172/2/5 168/2/5 167/2/5
f 173/1/5 169/1/5 168/1/5
f 173/2/5 168/2/5 172/2/5
f 174/2/5 170/2/5 169/2/5
f 174/1/5 169/1/5 173/1/5
f 175/2/5 170/2/5 174/2/5
f 177/2/5 172/2/5 171/2/5
f 178/1/5 173/1/5 172/1/5
f 178/2/5 172/2/5 177/2/5
f 178/1/5 174/1/5 173/1/5
f 178/1/5 175/1/5 174/1/5
f 179/1/5 175/1/5 178/1/5
f 180/1/5 175/1/5 179/1/5
f 181/2/5 176/2/5 175/2/5
f 181/1/5 175/1/5 180/1/5
f 182/2/5 176/2/5 181/2/5
f 183/2/5 179/2/5 178/2/5
f 184/1/5 180/1/5 179/1/5
f 184/2/5 179/2/5 183/2/5
f 185/2/5 181/2/5 180/2/5
f 185/1/5 180/1/5 184/1/5
f 186/2/5 181/2/5 185/2/5
f 187/2/5 185/2/5 184/2/5
f 188/2/5 185/2/5 187/2/5
f 191/3/5 190/3/5 189/3/5
f 192/3/5 190/3/5 191/3/5
f 195/3/5 194/3/5 193/3/5
f 196/3/5 194/3/5 195/3/5
f 197/1/6 198/1/6 202/1/6
f 199/1/6 200/1/6 202/1/6
f 198/1/6 199/1/6 202/1/6
f 202/1/6 200/1/6 203/1/6
f 201/1/6 202/1/6 205/1/6
f 203/1/6 204/1/6 205/1/6
f 202/1/6 203/1/6 205/1/6
f 205/1/6 204/1/6 206/1/6
f 206/1/6 204/1/6 207/1/6
f 207/1/6 204/1/6 208/1/6
f 206/1/6 207/1/6 209/1/6
f 209/1/6 207/1/6 210/1/6
f 211/3/6 212/3/6 214/3/6
f 214/3/6 212/3/6 215/3/6
f 213/2/6 214/2/6 218/2/6
f 214/3/6 215/3/6 219/3/6
f 218/2/6 214/2/6 219/2/6
f 215/2/6 216/2/6 220/2/6
f 219/3/6 215/3/6 220/3/6
f 220/2/6 216/2/6 221/2/6
f 217/2/6 218/2/6 224/2/6
f 224/2/6 218/2/6 225/2/6
f 221/2/6 222/2/6 226/2/6
f 226/2/6 222/2/6 227/2/6
f 223/2/6 224/2/6 229/2/6
f 229/2/6 224/2/6 230/2/6
f 227/2/6 228/2/6 233/2/6
f 233/2/6 228/2/6 234/2/6
f 230/2/6 231/2/6 235/2/6
f 235/2/6 231/2/6 236/2/6
f 232/2/6 233/2/6 237/2/6
f 237/2/6 233/2/6 238/2/6
f 236/2/6 237/2/6 239/2/6
f 239/2/6 237/2/6 240/2/6
f 241/3/6 242/3/6 243/3/6
f 243/3/6 242/3/6 244/3/6
